Info:


Video
Format                           : MPEG-4 Visual
Format profile                   : Simple@L1
Format settings, BVOP            : No
Format settings, QPel            : No
Format settings, GMC             : No warppoints
Format settings, Matrix          : Default
Codec ID                         : XVID
Codec ID/Hint                    : XviD
Duration                         : 4mn 57s
Bit rate                         : 10.0 Mbps
Width                            : 1920 pixels
Height                           : 1080 pixels
Display aspect ratio             : 16/9
Frame rate                       : 29.970 fps
Resolution                       : 8 bits
Colorimetry                      : 4:2:0
Scan type                        : Progressive
Bits/(Pixel*Frame)               : 0.161
Stream size                      : 354 MiB (97%)
Writing library                  : Lavc52.10.0

Audio
Format                           : MPEG Audio
Format version                   : Version 1
Format profile                   : Layer 3
Codec ID                         : 55
Codec ID/Hint                    : MP3
Duration                         : 4mn 57s
Bit rate mode                    : Constant
Bit rate                         : 320 Kbps
Channel(s)                       : 2 channels
Sampling rate                    : 44.1 KHz
Resolution                       : 16 bits
Stream size                      : 11.3 MiB (3%)
Alignment                        : Aligned on interleaves
Interleave, duration             : 26 ms (0.78 video frame)
Interleave, preload duration     : 52 ms
Writing library                  : LAME3.97 (beta)

Plz Seed 
;) This Crystal Clear Video...

Screens:
<img>http://lh5.ggpht.com/_-wgtl62Wh6c/TMrLLZR9qCI/AAAAAAAAAiQ/8FA3wyctdnM/s912/vlcsnap-2010-10-29-18h43m17s148.jpg</img>

<img>http://lh4.ggpht.com/_-wgtl62Wh6c/TMrLLn7PIbI/AAAAAAAAAiU/q_OLJ3U_gTI/s912/vlcsnap-2010-10-29-18h43m39s111.jpg</img>

<img>http://lh5.ggpht.com/_-wgtl62Wh6c/TMrLLjIA9AI/AAAAAAAAAiY/KFgjlcdb_0g/s912/vlcsnap-2010-10-29-18h43m50s223.jpg</img>

<img>http://lh6.ggpht.com/_-wgtl62Wh6c/TMrLL5GM82I/AAAAAAAAAic/Tye-RTkrNyg/s912/vlcsnap-2010-10-29-18h44m17s234.jpg</img>

<img>http://lh4.ggpht.com/_-wgtl62Wh6c/TMrLMraj4XI/AAAAAAAAAig/_36GQJdNDpI/s912/vlcsnap-2010-10-29-18h44m39s206.jpg</img>